<?xml version="1.0" encoding="UTF-8" standalone="no" ?>
<!DOCTYPE svg PUBLIC "-//W3C//DTD SVG 1.1//EN" "http://www.w3.org/Graphics/SVG/1.1/DTD/svg11.dtd">
<svg xmlns="http://www.w3.org/2000/svg" xmlns:xlink="http://www.w3.org/1999/xlink" version="1.1" width="max" height="max" viewBox="125 125 250 250" xml:space="preserve">
<desc>Created with Fabric.js 3.6.3</desc>
<defs>
</defs>
<g transform="matrix(2.8 0 0 2.8 250 227)"  >
<rect style="stroke: none; stroke-width: 0; stroke-dasharray: none; stroke-linecap: butt; stroke-dashoffset: 0; stroke-linejoin: miter; stroke-miterlimit: 4; fill: rgb(62,96,111); fill-rule: nonzero; opacity: 1;"  x="-25" y="-25" rx="0" ry="0" width="50" height="50" />
</g>
<g transform="matrix(1 0 0 1 250.25 227.25)" style=""  >
<path fill="#ffffff" opacity="1" d="M-30.84-34.77C-40.31-34.77-44.74-28.57-44.74-19.19L-44.74 12.84C-44.74 22.23-40.31 28.42-30.84 28.42C-21.28 28.42-16.86 22.23-16.86 12.84L-16.86-5.39L-29.78-5.39L-29.78 0.81L-23.41 0.81L-23.41 13.20C-23.41 18.77-25.62 22.14-30.67 22.14C-35.62 22.14-37.92 18.77-37.92 13.20L-37.92-19.55C-37.92-25.12-35.62-28.48-30.67-28.48C-25.62-28.48-23.41-25.12-23.41-19.55L-23.41-13.88L-16.86-13.88L-16.86-19.19C-16.86-28.57-21.28-34.77-30.84-34.77Z"/>
<path fill="#ffffff" opacity="1" d="M-9.96-46.45L-17.57-37.60L-11.55-37.60L-6.86-42.82L-2.17-37.60L3.85-37.60L-3.85-46.45ZM-10.31 27.80L-3.41 27.80L-3.41-34.15L-10.31-34.15Z"/>
<path fill="#ffffff" opacity="1" d="M3.67-34.15L3.67 27.80L10.58 27.80L10.58-34.15Z"/>
<path fill="#ffffff" opacity="1" d="M31.02-34.77C21.55-34.77 17.12-28.57 17.12-19.19L17.12 12.84C17.12 22.23 21.55 28.42 31.02 28.42C40.58 28.42 45.00 22.23 45.00 12.84L45.00 5.15L38.45 5.15L38.45 13.20C38.45 18.77 36.24 22.14 31.20 22.14C26.24 22.14 23.94 18.77 23.94 13.20L23.94-19.55C23.94-25.12 26.24-28.48 31.20-28.48C36.24-28.48 38.45-25.12 38.45-19.55L38.45-13.62L45.00-13.62L45.00-19.19C45.00-28.57 40.58-34.77 31.02-34.77Z"/>
</g>
</svg>
