<?xml version="1.0" encoding="UTF-8" standalone="no" ?>
<!DOCTYPE svg PUBLIC "-//W3C//DTD SVG 1.1//EN" "http://www.w3.org/Graphics/SVG/1.1/DTD/svg11.dtd">
<svg xmlns="http://www.w3.org/2000/svg" xmlns:xlink="http://www.w3.org/1999/xlink" version="1.1" width="40" height="40" viewBox="125 125 250 250" xml:space="preserve">
<desc>Created with Fabric.js 3.6.3</desc>
<defs>
</defs>
<g transform="matrix(2.8 0 0 2.8 250 227)"  >
<rect style="stroke: none; stroke-width: 0; stroke-dasharray: none; stroke-linecap: butt; stroke-dashoffset: 0; stroke-linejoin: miter; stroke-miterlimit: 4; fill: rgb(62,96,111); fill-rule: nonzero; opacity: 1;"  x="-25" y="-25" rx="0" ry="0" width="50" height="50" />
</g>
<g transform="matrix(1 0 0 1 250.25 227.25)" style=""  ><path fill="#ffffff" opacity="1" d="M-30.84-34.77C-40.31-34.77-44.74-28.57-44.74-19.19L-44.74 12.84C-44.74 22.23-40.31 28.42-30.84 28.42C-21.28 28.42-16.86 22.23-16.86 12.84L-16.86-5.39L-29.78-5.39L-29.78 0.81L-23.41 0.81L-23.41 13.20C-23.41 18.77-25.62 22.14-30.67 22.14C-35.62 22.14-37.92 18.77-37.92 13.20L-37.92-19.55C-37.92-25.12-35.62-28.48-30.67-28.48C-25.62-28.48-23.41-25.12-23.41-19.55L-23.41-13.88L-16.86-13.88L-16.86-19.19C-16.86-28.57-21.28-34.77-30.84-34.77Z"/><path fill="#ffffff" opacity="1" d="M-9.96-46.45L-17.57-37.60L-11.55-37.60L-6.86-42.82L-2.17-37.60L3.85-37.60L-3.85-46.45ZM-10.31 27.80L-3.41 27.80L-3.41-34.15L-10.31-34.15Z"/><path fill="#ffffff" opacity="1" d="M3.67-34.15L3.67 27.80L10.58 27.80L10.58-34.15Z"/><path fill="#ffffff" opacity="1" d="M31.02-34.77C21.55-34.77 17.12-28.57 17.12-19.19L17.12 12.84C17.12 22.23 21.55 28.42 31.02 28.42C40.58 28.42 45.00 22.23 45.00 12.84L45.00 5.15L38.45 5.15L38.45 13.20C38.45 18.77 36.24 22.14 31.20 22.14C26.24 22.14 23.94 18.77 23.94 13.20L23.94-19.55C23.94-25.12 26.24-28.48 31.20-28.48C36.24-28.48 38.45-25.12 38.45-19.55L38.45-13.62L45.00-13.62L45.00-19.19C45.00-28.57 40.58-34.77 31.02-34.77Z"/></g><g transform="matrix(1 0 0 1 250.25 324.32261474164136)" style=""  ><path fill="#000000" opacity="1" d="M-120.88-7.72C-122.99-7.72-123.97-6.34-123.97-4.26L-123.97 2.85C-123.97 4.93-122.99 6.31-120.88 6.31C-118.76 6.31-117.78 4.93-117.78 2.85L-117.78-1.20L-120.65-1.20L-120.65 0.18L-119.23 0.18L-119.23 2.93C-119.23 4.17-119.72 4.92-120.84 4.92C-121.95 4.92-122.46 4.17-122.46 2.93L-122.46-4.34C-122.46-5.58-121.95-6.32-120.84-6.32C-119.72-6.32-119.23-5.58-119.23-4.34L-119.23-3.08L-117.78-3.08L-117.78-4.26C-117.78-6.34-118.76-7.72-120.88-7.72Z"/><path fill="#000000" opacity="1" d="M-116.33-7.58L-116.33 6.17L-114.79 6.17L-114.79 0.30L-113.71 0.30C-112.43 0.30-111.71 0.79-111.71 2.34L-111.71 4.50C-111.71 5.43-111.63 5.78-111.45 6.17L-109.90 6.17C-110.16 5.70-110.17 5.13-110.17 4.52L-110.17 2.38C-110.17 0.91-110.65-0.12-111.90-0.49C-110.72-0.86-110.19-1.81-110.19-3.32L-110.19-4.44C-110.19-6.48-111.10-7.58-113.26-7.58ZM-114.79-1.10L-114.79-6.19L-113.30-6.19C-112.16-6.19-111.71-5.54-111.71-4.30L-111.71-2.98C-111.71-1.49-112.43-1.10-113.65-1.10Z"/><path fill="#000000" opacity="1" d="M-103.55 3.40L-103.02 6.17L-101.49 6.17L-104.12-7.58L-106.34-7.58L-108.98 6.17L-107.56 6.17L-107.03 3.40ZM-105.32-5.85L-103.77 2.09L-106.83 2.09Z"/><path fill="#000000" opacity="1" d="M-98.93-4.95L-95.42 6.17L-93.83 6.17L-93.83-7.58L-95.18-7.58L-95.18 2.36L-98.37-7.58L-100.31-7.58L-100.31 6.17L-98.93 6.17Z"/><path fill="#000000" opacity="1" d="M-92.25-7.58L-92.25 6.17L-89.03 6.17C-86.89 6.17-85.91 4.88-85.91 2.77L-85.91-4.16C-85.91-6.29-86.89-7.58-89.03-7.58ZM-90.72 4.78L-90.72-6.19L-89.07-6.19C-87.95-6.19-87.42-5.50-87.42-4.24L-87.42 2.83C-87.42 4.09-87.95 4.78-89.05 4.78Z"/><path fill="#000000" opacity="1" d="M-82.94-1.49L-82.94-6.19L-78.81-6.19L-78.81-7.58L-84.47-7.58L-84.47 6.17L-78.81 6.17L-78.81 4.78L-82.94 4.78L-82.94-0.12L-79.58-0.12L-79.58-1.49Z"/><path fill="#000000" opacity="1" d=""/><path fill="#000000" opacity="1" d="M-74.27-10.31L-75.96-8.35L-74.63-8.35L-73.59-9.51L-72.55-8.35L-71.21-8.35L-72.92-10.31ZM-74.35 6.17L-72.82 6.17L-72.82-7.58L-74.35-7.58Z"/><path fill="#000000" opacity="1" d="M-65.79 6.17L-65.79 4.78L-69.72 4.78L-69.72-7.58L-71.25-7.58L-71.25 6.17Z"/><path fill="#000000" opacity="1" d="M-63.09-1.49L-63.09-6.19L-58.97-6.19L-58.97-7.58L-64.63-7.58L-64.63 6.17L-58.97 6.17L-58.97 4.78L-63.09 4.78L-63.09-0.12L-59.73-0.12L-59.73-1.49Z"/><path fill="#000000" opacity="1" d=""/><path fill="#000000" opacity="1" d="M-54.51-7.58L-54.51 6.17L-52.97 6.17L-52.97-7.58Z"/><path fill="#000000" opacity="1" d="M-50.05-4.95L-46.53 6.17L-44.94 6.17L-44.94-7.58L-46.29-7.58L-46.29 2.36L-49.48-7.58L-51.42-7.58L-51.42 6.17L-50.05 6.17Z"/><path fill="#000000" opacity="1" d="M-39.87 6.17L-39.87-6.19L-37.33-6.19L-37.33-7.58L-43.91-7.58L-43.91-6.19L-41.38-6.19L-41.38 6.17Z"/><path fill="#000000" opacity="1" d="M-34.76-1.49L-34.76-6.19L-30.63-6.19L-30.63-7.58L-36.29-7.58L-36.29 6.17L-30.63 6.17L-30.63 4.78L-34.76 4.78L-34.76-0.12L-31.40-0.12L-31.40-1.49Z"/><path fill="#000000" opacity="1" d="M-29.22-7.58L-29.22 6.17L-27.68 6.17L-27.68 0.30L-26.60 0.30C-25.33 0.30-24.60 0.79-24.60 2.34L-24.60 4.50C-24.60 5.43-24.52 5.78-24.34 6.17L-22.79 6.17C-23.05 5.70-23.07 5.13-23.07 4.52L-23.07 2.38C-23.07 0.91-23.54-0.12-24.80-0.49C-23.62-0.86-23.09-1.81-23.09-3.32L-23.09-4.44C-23.09-6.48-23.99-7.58-26.15-7.58ZM-27.68-1.10L-27.68-6.19L-26.19-6.19C-25.05-6.19-24.60-5.54-24.60-4.30L-24.60-2.98C-24.60-1.49-25.33-1.10-26.54-1.10Z"/><path fill="#000000" opacity="1" d="M-20.12-4.95L-16.60 6.17L-15.01 6.17L-15.01-7.58L-16.37-7.58L-16.37 2.36L-19.55-7.58L-21.49-7.58L-21.49 6.17L-20.12 6.17Z"/><path fill="#000000" opacity="1" d="M-8.41 3.40L-7.88 6.17L-6.34 6.17L-8.98-7.58L-11.20-7.58L-13.83 6.17L-12.42 6.17L-11.89 3.40ZM-10.18-5.85L-8.62 2.09L-11.69 2.09Z"/><path fill="#000000" opacity="1" d="M-2.39 6.17L-2.39-6.19L0.14-6.19L0.14-7.58L-6.44-7.58L-6.44-6.19L-3.91-6.19L-3.91 6.17Z"/><path fill="#000000" opacity="1" d="M1.18-7.58L1.18 6.17L2.71 6.17L2.71-7.58Z"/><path fill="#000000" opacity="1" d="M4.17 2.85C4.17 4.93 5.21 6.31 7.31 6.31C9.43 6.31 10.48 4.93 10.48 2.85L10.48-4.26C10.48-6.36 9.43-7.72 7.31-7.72C5.21-7.72 4.17-6.36 4.17-4.26ZM5.68-4.34C5.68-5.58 6.21-6.32 7.31-6.32C8.43-6.32 8.94-5.58 8.94-4.34L8.94 2.93C8.94 4.19 8.43 4.92 7.31 4.92C6.21 4.92 5.68 4.19 5.68 2.93Z"/><path fill="#000000" opacity="1" d="M13.29-4.95L16.80 6.17L18.40 6.17L18.40-7.58L17.04-7.58L17.04 2.36L13.86-7.58L11.91-7.58L11.91 6.17L13.29 6.17Z"/><path fill="#000000" opacity="1" d="M25.00 3.40L25.53 6.17L27.06 6.17L24.43-7.58L22.21-7.58L19.57 6.17L20.99 6.17L21.52 3.40ZM23.23-5.85L24.78 2.09L21.72 2.09Z"/><path fill="#000000" opacity="1" d="M33.72 6.17L33.72 4.78L29.79 4.78L29.79-7.58L28.26-7.58L28.26 6.17Z"/><path fill="#000000" opacity="1" d=""/><path fill="#000000" opacity="1" d="M40.89-7.72C38.79-7.72 37.81-6.34 37.81-4.26L37.81 2.85C37.81 4.93 38.79 6.31 40.89 6.31C43.02 6.31 44.00 4.93 44.00 2.85L44.00 1.14L42.55 1.14L42.55 2.93C42.55 4.17 42.05 4.92 40.93 4.92C39.83 4.92 39.32 4.17 39.32 2.93L39.32-4.34C39.32-5.58 39.83-6.32 40.93-6.32C42.05-6.32 42.55-5.58 42.55-4.34L42.55-3.02L44.00-3.02L44.00-4.26C44.00-6.34 43.02-7.72 40.89-7.72Z"/><path fill="#000000" opacity="1" d="M45.28 2.85C45.28 4.93 46.32 6.31 48.42 6.31C50.54 6.31 51.58 4.93 51.58 2.85L51.58-4.26C51.58-6.36 50.54-7.72 48.42-7.72C46.32-7.72 45.28-6.36 45.28-4.26ZM46.79-4.34C46.79-5.58 47.32-6.32 48.42-6.32C49.54-6.32 50.05-5.58 50.05-4.34L50.05 2.93C50.05 4.19 49.54 4.92 48.42 4.92C47.32 4.92 46.79 4.19 46.79 2.93Z"/><path fill="#000000" opacity="1" d="M53.04-7.58L53.04 6.17L54.57 6.17L54.57 0.30L55.65 0.30C56.93 0.30 57.66 0.79 57.66 2.34L57.66 4.50C57.66 5.43 57.73 5.78 57.91 6.17L59.46 6.17C59.21 5.70 59.19 5.13 59.19 4.52L59.19 2.38C59.19 0.91 58.72-0.12 57.46-0.49C58.64-0.86 59.17-1.81 59.17-3.32L59.17-4.44C59.17-6.48 58.27-7.58 56.10-7.58ZM54.57-1.10L54.57-6.19L56.06-6.19C57.20-6.19 57.66-5.54 57.66-4.30L57.66-2.98C57.66-1.49 56.93-1.10 55.71-1.10Z"/><path fill="#000000" opacity="1" d="M60.78-7.58L60.78 6.17L62.31 6.17L62.31 0.75L63.67 0.75C65.85 0.75 66.87-0.39 66.87-2.57L66.87-4.22C66.87-6.30 65.95-7.58 63.79-7.58ZM62.31-0.63L62.31-6.19L63.79-6.19C64.91-6.19 65.36-5.56 65.36-4.30L65.36-2.47C65.36-1.16 64.81-0.63 63.67-0.63Z"/><path fill="#000000" opacity="1" d="M67.95 2.85C67.95 4.93 68.99 6.31 71.10 6.31C73.22 6.31 74.26 4.93 74.26 2.85L74.26-4.26C74.26-6.36 73.22-7.72 71.10-7.72C68.99-7.72 67.95-6.36 67.95-4.26ZM69.47-4.34C69.47-5.58 70.00-6.32 71.10-6.32C72.22-6.32 72.73-5.58 72.73-4.34L72.73 2.93C72.73 4.19 72.22 4.92 71.10 4.92C70.00 4.92 69.47 4.19 69.47 2.93Z"/><path fill="#000000" opacity="1" d="M75.71-7.58L75.71 6.17L77.25 6.17L77.25 0.30L78.33 0.30C79.60 0.30 80.33 0.79 80.33 2.34L80.33 4.50C80.33 5.43 80.41 5.78 80.59 6.17L82.14 6.17C81.88 5.70 81.86 5.13 81.86 4.52L81.86 2.38C81.86 0.91 81.39-0.12 80.14-0.49C81.31-0.86 81.85-1.81 81.85-3.32L81.85-4.44C81.85-6.48 80.94-7.58 78.78-7.58ZM77.25-1.10L77.25-6.19L78.74-6.19C79.88-6.19 80.33-5.54 80.33-4.30L80.33-2.98C80.33-1.49 79.60-1.10 78.39-1.10Z"/><path fill="#000000" opacity="1" d="M88.49 3.40L89.02 6.17L90.55 6.17L87.92-7.58L85.70-7.58L83.06 6.17L84.48 6.17L85.01 3.40ZM86.72-5.85L88.27 2.09L85.21 2.09Z"/><path fill="#000000" opacity="1" d="M94.50 6.17L94.50-6.19L97.03-6.19L97.03-7.58L90.45-7.58L90.45-6.19L92.99-6.19L92.99 6.17Z"/><path fill="#000000" opacity="1" d="M98.08-7.58L98.08 6.17L99.61 6.17L99.61-7.58Z"/><path fill="#000000" opacity="1" d="M101.06 2.85C101.06 4.93 102.10 6.31 104.21 6.31C106.33 6.31 107.37 4.93 107.37 2.85L107.37-4.26C107.37-6.36 106.33-7.72 104.21-7.72C102.10-7.72 101.06-6.36 101.06-4.26ZM102.58-4.34C102.58-5.58 103.11-6.32 104.21-6.32C105.33-6.32 105.84-5.58 105.84-4.34L105.84 2.93C105.84 4.19 105.33 4.92 104.21 4.92C103.11 4.92 102.58 4.19 102.58 2.93Z"/><path fill="#000000" opacity="1" d="M110.18-4.95L113.70 6.17L115.29 6.17L115.29-7.58L113.93-7.58L113.93 2.36L110.75-7.58L108.80-7.58L108.80 6.17L110.18 6.17Z"/></g></svg>